<?xml version="1.0" standalone="no"?>
<!DOCTYPE svg PUBLIC "-//W3C//DTD SVG 20010904//EN"
 "http://www.w3.org/TR/2001/REC-SVG-20010904/DTD/svg10.dtd">
<svg version="1.0" xmlns="http://www.w3.org/2000/svg"
 width="70.000000pt" height="70.000000pt" viewBox="0 0 70.000000 70.000000"
 preserveAspectRatio="xMidYMid meet">
<metadata>
Created by potrace 1.14, written by Peter Selinger 2001-2017
</metadata>
<g transform="translate(0.000000,70.000000) scale(0.100000,-0.100000)"
fill="#000000" stroke="none">
<path d="M42 683 c-27 -23 -41 -79 -30 -120 10 -40 66 -83 79 -62 5 8 9 10 9
5 0 -6 10 4 23 21 15 21 22 43 21 69 -2 41 -26 98 -37 87 -4 -3 -7 -1 -7 5 0
18 -35 14 -58 -5z"/>
<path d="M335 690 c3 -6 -1 -7 -9 -4 -11 4 -16 0 -16 -14 0 -11 -7 -25 -15
-32 -9 -7 -14 -19 -11 -27 3 -8 0 -16 -7 -19 -7 -2 -24 -26 -37 -52 -14 -25
-31 -53 -37 -60 -7 -7 -13 -19 -13 -26 0 -8 -7 -19 -15 -26 -8 -7 -12 -16 -9
-22 3 -5 -4 -18 -16 -28 -13 -11 -19 -24 -14 -31 4 -7 3 -9 -3 -6 -5 3 -16 -9
-23 -28 -8 -19 -17 -35 -21 -35 -4 0 -10 -11 -13 -25 -4 -14 -11 -25 -16 -25
-6 0 -10 -9 -10 -20 0 -11 -5 -20 -10 -20 -6 0 -9 -3 -8 -7 0 -5 -6 -23 -14
-42 -46 -101 64 -196 116 -100 8 13 25 44 40 69 14 25 41 76 60 113 19 37 39
74 45 81 11 13 46 77 114 206 30 58 33 70 25 110 -8 48 -36 80 -70 80 -10 0
-16 -4 -13 -10z"/>
<path d="M620 689 c0 -5 -4 -8 -9 -5 -9 6 -26 -10 -33 -29 -1 -5 -7 -9 -13 -7
-5 2 -4 -2 3 -9 14 -15 16 -33 3 -24 -5 3 -13 1 -16 -5 -4 -6 -1 -9 6 -8 8 2
13 -9 14 -28 2 -59 65 -93 100 -54 14 16 19 37 20 81 1 53 -2 63 -23 80 -27
21 -52 25 -52 8z"/>
<path d="M454 456 c-11 -16 -11 -22 -1 -28 9 -5 9 -10 -2 -20 -11 -11 -13 -11
-6 1 5 9 3 12 -6 9 -8 -3 -15 -10 -15 -16 -1 -7 -2 -19 -3 -27 0 -8 -4 -14 -8
-14 -20 3 -26 -2 -13 -11 12 -8 12 -10 -5 -10 -15 0 -17 -2 -6 -9 11 -7 9 -10
-8 -16 -11 -3 -21 -11 -21 -16 0 -13 18 -11 23 4 3 7 6 7 6 1 1 -6 -9 -19 -21
-30 -14 -12 -19 -14 -13 -4 7 12 6 13 -6 2 -12 -11 -12 -14 1 -22 12 -8 11
-11 -7 -16 -25 -7 -34 -24 -28 -53 2 -13 -1 -18 -10 -15 -7 3 -16 1 -20 -5 -3
-6 -1 -11 6 -11 7 0 4 -7 -7 -16 -16 -13 -16 -15 -1 -10 16 5 16 4 1 -19 -15
-23 -13 -29 8 -26 4 0 5 -9 3 -20 -7 -35 16 -59 56 -59 33 0 69 23 69 44 0 5
15 34 34 65 19 31 43 73 55 94 12 20 30 54 42 74 11 20 22 46 23 58 1 11 6 26
10 33 4 7 3 12 -3 12 -5 0 -8 8 -6 18 1 9 -4 29 -13 44 -20 35 -87 44 -108 14z
m-114 -246 c0 -5 -5 -10 -11 -10 -5 0 -7 5 -4 10 3 6 8 10 11 10 2 0 4 -4 4
-10z"/>
</g>
</svg>
